<svg xmlns="http://www.w3.org/2000/svg" width="800" height="600" viewBox="0 0 800 600"><rect width="800" height="600" fill="#2A1518"/><circle cx="194" cy="257" r="251" fill="#E9DFB8" opacity="0.1"/><circle cx="521" cy="145" r="357" fill="#D4AF37" opacity="0.12"/><circle cx="40" cy="410" r="187" fill="#E9DFB8" opacity="0.18"/><circle cx="739" cy="297" r="156" fill="#D4AF37" opacity="0.16"/><circle cx="249" cy="80" r="348" fill="#E9DFB8" opacity="0.15"/><path d="M50 480 v-170 a83 83 0 0 1 167 0 V480 Z" fill="#6b4a17"/><circle cx="133" cy="252" r="37" fill="#6b4a17"/><path d="M317 480 v-146 a83 83 0 0 1 167 0 V480 Z" fill="#6b4a17"/><circle cx="400" cy="275" r="37" fill="#6b4a17"/><path d="M583 480 v-173 a83 83 0 0 1 167 0 V480 Z" fill="#3a231c"/><circle cx="667" cy="248" r="37" fill="#3a231c"/><rect y="480" width="800" height="120" fill="#120B09" opacity="0.55"/><text x="28" y="574" font-family="Georgia,serif" font-style="italic" font-size="26" fill="#E9DFB8" opacity="0.9">Гастроли, Краснодар</text></svg>
