<svg xmlns="http://www.w3.org/2000/svg" width="800" height="600" viewBox="0 0 800 600"><rect width="800" height="600" fill="#3A2A22"/><circle cx="615" cy="354" r="148" fill="#800020" opacity="0.17"/><circle cx="34" cy="400" r="205" fill="#800020" opacity="0.16"/><circle cx="77" cy="361" r="282" fill="#E9DFB8" opacity="0.2"/><circle cx="410" cy="334" r="294" fill="#D4AF37" opacity="0.16"/><circle cx="411" cy="220" r="356" fill="#E9DFB8" opacity="0.17"/><path d="M30 480 v-94 a50 50 0 0 1 100 0 V480 Z" fill="#1A0E0B"/><circle cx="80" cy="351" r="22" fill="#1A0E0B"/><path d="M190 480 v-100 a50 50 0 0 1 100 0 V480 Z" fill="#6b4a17"/><circle cx="240" cy="345" r="22" fill="#6b4a17"/><path d="M350 480 v-98 a50 50 0 0 1 100 0 V480 Z" fill="#3a231c"/><circle cx="400" cy="347" r="22" fill="#3a231c"/><path d="M510 480 v-103 a50 50 0 0 1 100 0 V480 Z" fill="#1A0E0B"/><circle cx="560" cy="342" r="22" fill="#1A0E0B"/><path d="M670 480 v-85 a50 50 0 0 1 100 0 V480 Z" fill="#6b4a17"/><circle cx="720" cy="360" r="22" fill="#6b4a17"/><rect y="480" width="800" height="120" fill="#120B09" opacity="0.55"/><text x="28" y="574" font-family="Georgia,serif" font-style="italic" font-size="26" fill="#E9DFB8" opacity="0.9">Рождественский вечер</text></svg>
